Nine Inch Nails - The Downward Spiral : Live AVCHD

This is an AVCHD I made by muxing two different files: The 720p video from the m4v and the PCM audio from the dvd. I also added chapters.

Just burn the iso with imgburn and this AVCHD should play in any PS3 and in some blu-ray players.

Original video file:
http://thepiratebay.org/torrent/5138278/Nine_Inch_Nails_-_The_Downward_Spiral___Live_%5BHD_720p_m4v%5D

Original audio file:
http://thepiratebay.org/torrent/5134092/Nine_Inch_Nails_-_The_Downward_Spiral___Live_%5BDVD%5D

All the credits to:
thisoneisonus.org / theninhotline.net

Mediainfo:
Format                           : BDAV
Format/Info                      : Blu-ray Video
File size                        : 3.35 GiB
Duration                         : 1h 3mn
Overall bit rate                 : 7 562 Kbps
Maximum Overall bit rate         : 35.5 Mbps

Video
ID                               : 4113 (0x1011)
Menu ID                          : 1 (0x1)
Format                           : AVC
Format/Info                      : Advanced Video Codec
Format profile                   : High@L4.1
Format settings, CABAC           : No
Format settings, ReFrames        : 2 frames
Duration                         : 1h 3mn
Bit rate                         : 5 268 Kbps
Width                            : 1 280 pixels
Height                           : 720 pixels
Display aspect ratio             : 16:9
Resolution                       : 8 bits
Colorimetry                      : 4:2:0
Scan type                        : Progressive
Stream size                      : 2.33 GiB (70%)
Language                         : English /  / 
Color primaries                  : BT.709-5, BT.1361, IEC 61966-2-4, SMPTE RP177
Transfer characteristics         : BT.709-5, BT.1361
Matrix coefficients              : BT.709-5, BT.1361, IEC 61966-2-4 709, SMPTE RP177

Audio #1
ID                               : 4352 (0x1100)
Menu ID                          : 1 (0x1)
Format                           : PCM
Format settings, Endianness      : Big
Format settings, Sign            : Signed
Muxing mode                      : Blu-ray
Duration                         : 1h 3mn
Bit rate mode                    : Constant
Bit rate                         : 1 536 Kbps
Channel(s)                       : 2 channels
Channel positions                : Front: L R
Sampling rate                    : 48.0 KHz
Resolution                       : 16 bits
Stream size                      : 696 MiB (20%)
Language                         : English /  / 

Audio #2
ID                               : 4353 (0x1101)
Menu ID                          : 1 (0x1)
Format                           : AC-3
Format/Info                      : Audio Coding 3
Duration                         : 1h 3mn
Bit rate mode                    : Constant
Bit rate                         : 448 Kbps
Channel(s)                       : 2 channels
Channel positions                : Front: L R
Sampling rate                    : 48.0 KHz
Stream size                      : 203 MiB (6%)
Language                         : English /  / 


Note: My upload speed is slow, so patience. 
